<?xml version="1.0" standalone="no"?>
<!DOCTYPE svg PUBLIC "-//W3C//DTD SVG 20010904//EN"
 "http://www.w3.org/TR/2001/REC-SVG-20010904/DTD/svg10.dtd">
<svg version="1.0" xmlns="http://www.w3.org/2000/svg"
 width="500.000000pt" height="500.000000pt" viewBox="0 0 500.000000 500.000000"
 preserveAspectRatio="xMidYMid meet">
<metadata>
Created by potrace 1.15, written by Peter Selinger 2001-2017
</metadata>
<g transform="translate(0.000000,500.000000) scale(0.100000,-0.100000)"
fill="#000000" stroke="none">
<path d="M2220 4315 c-89 -17 -175 -42 -210 -60 -66 -34 -68 -46 -99 -555 -27
-438 -30 -515 -41 -955 -13 -494 -13 -1155 0 -1675 15 -601 24 -748 47 -801
35 -79 124 -138 261 -174 82 -21 345 -21 427 0 146 38 245 111 270 199 28 103
37 606 32 1806 -4 1021 -7 1180 -25 1470 -28 430 -42 589 -54 622 -15 40 -47
63 -118 87 -154 50 -347 64 -490 36z m254 -22 c15 -8 25 -10 22 -4 -5 7 6 11
31 11 l38 -1 -25 -15 -25 -15 25 7 c14 3 27 7 30 7 18 4 96 -16 116 -29 13 -9
31 -14 39 -10 8 3 14 0 12 -7 -1 -7 5 -11 14 -9 21 3 45 -26 52 -63 3 -16 9
-39 13 -49 5 -14 4 -17 -4 -12 -7 4 -12 2 -12 -3 0 -6 4 -11 10 -11 5 0 8 -15
7 -32 -2 -18 0 -40 4 -49 8 -15 29 -366 35 -564 2 -60 5 -139 9 -175 3 -36 7
-92 10 -125 3 -33 8 -484 11 -1002 7 -883 6 -943 -10 -943 -16 0 -17 18 -12
233 14 635 5 1560 -18 1892 -3 39 -12 178 -21 310 -8 132 -20 291 -26 353 -6
62 -9 123 -7 137 3 14 1 25 -4 25 -5 0 -6 10 -3 21 4 12 3 19 -2 16 -5 -3 -21
5 -36 19 -15 14 -32 22 -37 19 -6 -3 -10 -2 -10 4 0 6 -7 8 -15 5 -8 -4 -15
-2 -15 4 0 5 -10 10 -22 10 -13 -1 -54 4 -93 10 -38 7 -84 12 -101 12 -32 0
-32 0 -37 -62 -4 -35 -8 -74 -9 -87 -2 -18 4 -29 22 -38 14 -7 24 -18 22 -24
-1 -6 2 -8 7 -4 11 6 34 -29 24 -39 -3 -3 -1 -6 6 -6 8 0 11 -16 9 -52 -3 -45
-6 -53 -22 -50 -10 2 -15 -1 -12 -6 3 -6 -1 -13 -10 -16 -24 -9 -26 -3 -8 23
13 19 18 20 32 9 15 -11 15 -11 6 2 -6 8 -11 31 -13 50 -2 34 -28 87 -38 76
-8 -7 -31 17 -27 29 2 5 -7 10 -20 10 -18 0 -22 -3 -14 -12 8 -9 7 -13 -3 -13
-26 0 -58 -46 -58 -81 -1 -49 3 -78 9 -76 10 3 73 -23 68 -28 -6 -6 -68 14
-85 28 -7 5 -11 13 -8 17 3 4 -6 10 -20 12 -14 3 -26 0 -29 -8 -3 -8 -10 -14
-16 -14 -6 0 -9 3 -7 8 9 14 -131 1 -144 -14 -16 -19 -17 -90 -1 -106 7 -7 46
-13 97 -14 77 -2 88 0 106 19 l21 22 -7 -25 c-7 -23 -7 -24 10 -10 12 10 20
11 22 4 2 -6 15 -9 30 -6 19 4 24 2 18 -8 -6 -10 -4 -11 6 -4 22 13 59 12 59
-2 0 -7 -8 -13 -17 -13 -10 -1 -37 -4 -60 -7 -41 -6 -43 -8 -43 -40 0 -28 -4
-34 -21 -34 -11 0 -18 -4 -14 -9 3 -5 -5 -22 -18 -37 l-23 -26 -17 26 c-14 21
-25 26 -61 26 -30 0 -51 -7 -67 -21 -13 -11 -18 -18 -11 -14 6 3 12 2 12 -4 0
-6 -11 -13 -25 -17 -22 -5 -25 -11 -25 -54 0 -42 4 -52 36 -79 l35 -31 -35
-15 c-40 -17 -49 -39 -50 -123 -1 -44 3 -57 22 -72 30 -25 102 -35 152 -22 35
9 42 8 50 -8 15 -27 12 -40 -7 -40 -15 0 -16 -2 -3 -10 13 -9 13 -11 0 -19
-17 -12 -31 -5 -24 13 4 9 -13 12 -70 12 -97 -1 -116 -16 -116 -93 0 -69 11
-90 56 -102 45 -13 93 -4 121 21 21 20 21 20 44 -6 21 -24 28 -26 110 -26 49
0 91 -5 94 -10 4 -6 11 -8 16 -5 17 11 59 -43 61 -77 4 -67 -6 -128 -20 -128
-4 0 -5 35 -1 78 4 42 6 77 5 78 0 0 -14 10 -30 22 -23 18 -42 22 -97 22 -37
0 -80 -5 -96 -12 -15 -6 -31 -11 -34 -10 -3 1 -4 -11 -2 -26 3 -24 2 -24 -6
-7 -10 20 -8 -18 4 -97 3 -16 0 -28 -5 -28 -6 0 -10 -5 -10 -11 0 -5 5 -7 12
-3 7 5 9 2 5 -9 -4 -11 -1 -15 14 -12 10 2 19 0 19 -6 0 -13 167 -11 192 2 34
18 32 1 -3 -20 -19 -12 -52 -21 -74 -21 -22 0 -50 -3 -61 -6 -21 -6 -21 -7 8
-36 29 -30 30 -30 44 -9 18 24 92 47 106 33 6 -6 16 -8 22 -6 7 3 23 -7 36
-21 13 -14 20 -25 16 -25 -4 0 0 -7 8 -16 9 -8 16 -21 16 -28 0 -21 -44 -80
-70 -94 -48 -25 -147 8 -133 44 8 22 -4 17 -44 -20 -21 -18 -51 -36 -68 -40
-27 -6 -30 -11 -31 -45 -1 -21 -7 -47 -13 -58 -9 -18 -15 -19 -48 -10 -49 13
-124 2 -155 -23 -25 -19 -33 -63 -30 -155 3 -96 1 -201 -4 -217 -3 -9 2 -32
10 -52 16 -39 42 -50 117 -51 66 0 91 24 87 85 -2 25 -7 51 -12 59 -10 16 10
32 31 24 11 -4 16 -31 16 -95 0 -10 5 -14 15 -10 8 3 13 1 10 -4 -4 -5 35 -9
92 -9 88 0 101 3 122 23 17 15 25 35 27 63 2 50 -8 101 -19 94 -5 -3 -10 0
-12 7 -5 15 -120 23 -183 13 -40 -6 -46 -10 -52 -36 -3 -19 -12 -29 -23 -29
-16 0 -17 4 -5 43 l12 42 109 0 c132 0 163 -12 183 -71 12 -34 12 -46 0 -84
-21 -65 -54 -85 -146 -87 -94 -2 -103 -6 -103 -42 l0 -29 62 2 c46 1 62 -3 65
-14 3 -9 1 -11 -4 -5 -9 12 -29 12 -60 1 -19 -6 -22 -13 -18 -42 2 -19 7 -40
10 -47 4 -6 -7 4 -23 23 -17 19 -32 33 -34 30 -25 -32 -33 -64 -33 -125 1 -54
4 -70 15 -70 21 0 24 -29 6 -64 -19 -35 -21 -108 -5 -162 8 -25 9 -43 2 -51
-16 -21 -16 -103 0 -141 9 -19 13 -38 9 -41 -13 -13 66 -5 84 9 24 18 31 18
37 2 3 -8 -4 -14 -20 -15 -39 -3 -45 -12 -39 -51 5 -31 4 -33 -6 -13 -29 57
-86 -11 -75 -91 7 -48 29 -74 79 -89 l38 -11 0 -109 c0 -77 5 -119 16 -146 15
-36 25 -81 44 -207 5 -33 16 -76 24 -96 11 -26 12 -46 6 -74 -5 -22 -7 -42 -4
-45 3 -3 39 -5 80 -5 53 0 75 4 79 14 3 7 12 10 20 7 8 -3 15 -2 15 2 0 4 21
15 46 26 25 10 56 29 69 42 22 22 45 31 45 19 0 -12 -61 -65 -74 -65 -8 0 -19
-7 -26 -15 -7 -8 -20 -15 -29 -15 -9 0 -21 -4 -27 -9 -5 -6 -36 -17 -68 -25
-97 -25 -426 -21 -410 5 3 5 -1 6 -9 3 -20 -7 -127 35 -134 53 -4 11 -8 12
-13 3 -6 -9 -14 -6 -31 11 -13 13 -27 23 -30 22 -13 -4 -51 79 -54 120 -2 23
-7 134 -10 247 -4 113 -10 333 -15 490 -22 754 -2 2073 40 2615 5 66 12 156
15 200 16 247 27 321 45 310 6 -4 10 0 10 8 0 14 36 30 143 61 115 34 282 44
331 19z m-227 -432 c25 -30 30 -41 20 -49 -14 -12 -155 -10 -175 2 -16 10 -16
73 1 79 6 3 37 6 67 6 52 1 57 -1 87 -38z m447 23 c10 -25 7 -59 -6 -72 -7 -7
-43 -12 -90 -12 -93 0 -104 11 -61 64 27 34 31 36 89 36 47 0 63 -4 68 -16z
m-458 -327 c-3 -13 5 -33 25 -58 l30 -38 63 6 c111 10 176 -43 176 -143 0
-113 -104 -176 -215 -130 -51 22 -70 58 -71 139 0 66 -2 71 -33 96 l-32 27 20
18 c17 15 20 27 15 53 -3 18 -3 40 0 49 9 22 29 6 22 -19z m244 -667 c26 -26
28 -124 3 -152 -25 -27 -155 -26 -183 2 -35 35 -23 153 17 163 10 3 46 5 81 6
50 1 66 -3 82 -19z m8 -844 c21 -21 18 -107 -5 -123 -26 -20 -167 -17 -187 3
-23 22 -25 96 -5 121 20 24 173 23 197 -1z m397 -1018 c-3 -84 -7 -227 -11
-318 -5 -153 -7 -194 -19 -354 -3 -41 -9 -62 -22 -71 -23 -17 -25 -15 -13 26
6 19 13 98 17 176 3 78 9 141 12 139 6 -4 10 170 10 412 -1 121 1 142 14 142
14 0 15 -21 12 -152z"/>
<path d="M2061 2884 c-43 -35 -43 -90 -2 -136 25 -28 36 -33 85 -35 31 -1 56
3 56 8 0 5 7 9 15 9 12 0 15 16 15 80 0 92 -7 100 -89 100 -39 0 -56 -6 -80
-26z"/>
<path d="M2236 2608 c-16 -18 -25 -36 -22 -45 4 -9 1 -23 -6 -31 -10 -12 -10
-14 0 -8 7 4 12 1 12 -8 0 -21 31 -36 72 -36 50 1 68 20 68 72 0 51 -12 66
-63 78 -29 6 -37 3 -61 -22z"/>
<path d="M2463 2624 c-37 -16 -47 -39 -37 -89 7 -40 28 -55 74 -55 72 0 100
55 58 116 -12 19 -28 32 -34 30 -6 -3 -15 -1 -20 3 -5 5 -23 2 -41 -5z"/>
<path d="M2026 2604 c-21 -21 -20 -67 2 -93 21 -26 108 -33 123 -10 16 25 10
91 -8 105 -25 19 -98 18 -117 -2z"/>
<path d="M2100 1695 c-25 -12 -51 -20 -59 -17 -35 13 -58 -87 -25 -106 9 -5
36 -7 60 -4 23 2 58 -1 76 -7 30 -11 35 -10 56 14 45 52 18 147 -40 144 -13
-1 -43 -11 -68 -24z"/>
<path d="M2068 1552 c-25 -3 -28 -7 -28 -43 0 -28 4 -39 15 -39 8 0 15 -4 15
-9 0 -6 -16 -7 -36 -4 l-35 6 3 -59 3 -59 90 -5 c76 -5 93 -3 109 11 25 23 25
92 1 119 -17 19 -20 19 -44 4 -17 -12 -26 -14 -29 -5 -2 6 -9 8 -14 5 -6 -4
-8 -2 -4 4 3 6 2 13 -3 16 -5 4 -12 2 -16 -4 -12 -20 -35 -10 -35 16 0 16 5
24 13 21 6 -2 22 0 35 4 19 7 22 5 22 -17 0 -14 4 -22 10 -19 6 3 10 17 10 29
0 25 -27 34 -82 28z"/>
<path d="M2031 1281 c12 -49 11 -51 -8 -51 -16 0 -16 2 -3 11 13 9 13 10 0 6
-19 -5 -27 -116 -9 -128 6 -4 49 -7 95 -8 103 -2 116 8 112 83 l-3 51 -37 -1
-36 -1 18 33 19 33 -28 6 c-16 3 -51 5 -78 4 l-50 -2 8 -36z"/>
<path d="M2027 1089 c-9 -5 -14 -15 -11 -21 4 -6 0 -14 -7 -19 -11 -7 -10 -9
5 -9 18 0 18 -1 3 -18 -26 -29 -21 -77 12 -114 24 -27 36 -32 88 -36 56 -4 61
-2 81 23 39 50 19 134 -29 122 -10 -3 -20 1 -23 9 -3 8 -11 14 -17 14 -8 0 -7
-5 2 -17 9 -12 5 -11 -11 3 -19 16 -31 19 -52 14 -31 -9 -39 -3 -29 20 8 20
126 27 118 6 -3 -7 -1 -19 4 -27 7 -10 9 -3 7 21 l-3 35 -60 2 c-33 2 -68 -2
-78 -8z"/>
<path d="M2366 3449 c5 -9 1 -10 -14 -7 -14 4 -22 2 -22 -6 0 -7 -9 -21 -20
-31 -20 -18 -21 -18 -15 1 4 12 1 10 -9 -6 -25 -41 -29 -92 -11 -137 13 -33
24 -44 61 -58 61 -23 154 -4 154 32 0 6 5 13 11 15 6 2 13 24 16 48 8 79 -38
133 -130 154 -21 5 -27 4 -21 -5z m67 -40 c28 -13 57 -58 57 -89 0 -69 -69
-113 -133 -86 -71 29 -84 111 -25 161 32 27 63 31 101 14z"/>
<path d="M2322 2881 c-16 -10 -22 -109 -9 -128 12 -17 139 -17 155 -1 7 7 12
35 12 63 0 28 -5 56 -12 63 -14 14 -126 16 -146 3z"/>
<path d="M2307 2033 c-4 -3 -7 -25 -7 -49 0 -50 7 -54 99 -54 74 0 91 10 91
51 0 56 -6 59 -94 59 -46 0 -86 -3 -89 -7z"/>
</g>
</svg>
