<?xml version="1.0" standalone="no"?>
<!DOCTYPE svg PUBLIC "-//W3C//DTD SVG 20010904//EN"
 "http://www.w3.org/TR/2001/REC-SVG-20010904/DTD/svg10.dtd">
<svg version="1.0" xmlns="http://www.w3.org/2000/svg"
 width="500.000000pt" height="500.000000pt" viewBox="0 0 500.000000 500.000000"
 preserveAspectRatio="xMidYMid meet">
<metadata>
Created by potrace 1.15, written by Peter Selinger 2001-2017
</metadata>
<g transform="translate(0.000000,500.000000) scale(0.100000,-0.100000)"
fill="#000000" stroke="none">
<path d="M2070 3944 c-63 -2 -124 -8 -135 -13 -11 -5 -108 -14 -215 -21 -107
-7 -197 -15 -200 -20 -3 -4 -43 -10 -89 -14 -46 -4 -91 -11 -100 -16 -9 -4
-27 -13 -41 -19 -14 -7 -38 -19 -55 -28 -35 -19 -225 -207 -225 -224 0 -6 -16
-31 -36 -55 -27 -32 -34 -47 -26 -57 11 -13 20 -357 9 -374 -8 -12 105 -115
136 -125 12 -3 43 -6 69 -7 27 -1 48 -6 51 -13 5 -17 252 -17 269 0 15 15 534
17 543 2 3 -6 52 -10 110 -10 58 0 107 4 110 10 9 14 1325 14 1325 0 0 -6 40
-10 99 -10 56 0 103 4 106 10 3 6 31 10 62 10 64 0 110 19 147 61 15 16 38 34
51 39 20 7 23 16 23 52 -1 24 2 122 7 219 l7 176 -127 127 c-70 69 -134 126
-141 126 -8 0 -17 6 -20 14 -3 8 -19 18 -35 21 -16 4 -29 10 -29 14 0 9 -61
31 -88 31 -12 0 -22 4 -22 9 0 5 -45 12 -100 16 -55 4 -100 10 -100 14 0 8
-263 31 -345 31 -28 0 -56 5 -62 11 -11 11 -694 20 -933 13z m1002 -52 c7 -7
37 -12 69 -12 84 0 119 -9 119 -31 0 -12 7 -19 20 -19 24 0 26 -22 5 -40 -12
-10 -15 -10 -15 0 0 8 -2 11 -5 8 -3 -3 -2 -13 1 -22 6 -14 17 -17 60 -14 55
3 69 -10 23 -23 -48 -14 -76 -10 -82 11 -3 11 -12 20 -21 20 -23 0 -20 -27 4
-33 41 -11 18 -25 -52 -32 -40 -4 -78 -11 -83 -15 -6 -5 -139 -14 -297 -21
-229 -10 -346 -10 -580 0 -161 7 -295 16 -298 20 -3 4 -43 11 -90 15 -47 4
-89 11 -94 16 -6 6 -28 10 -51 10 -30 0 -36 3 -25 10 11 8 9 9 -10 5 -34 -8
-104 18 -108 40 -4 16 -2 16 19 1 31 -22 49 -20 49 4 0 20 21 26 78 21 12 -1
22 3 22 8 0 6 17 13 38 16 68 11 82 15 82 25 0 6 -10 10 -22 10 -34 0 -16 9
30 15 40 5 42 4 43 -23 1 -21 2 -22 6 -7 3 11 10 26 15 33 12 14 58 16 58 2 0
-13 63 -13 76 -1 17 17 65 19 536 17 358 -1 470 -4 480 -14z m-1504 -158 c17
-4 32 -10 32 -14 0 -4 24 -11 52 -14 29 -4 57 -11 63 -16 5 -4 66 -13 135 -20
69 -7 136 -17 149 -24 36 -17 1013 -16 1019 2 2 7 22 12 52 12 62 0 202 20
215 31 6 4 34 11 63 15 28 3 52 10 52 15 0 12 47 12 54 0 4 -5 25 -12 49 -16
23 -4 47 -11 52 -15 6 -4 36 -13 68 -20 31 -7 57 -16 57 -20 0 -4 17 -11 37
-15 20 -4 46 -13 57 -21 11 -8 42 -17 68 -20 26 -4 48 -10 48 -15 0 -5 7 -9
16 -9 29 0 124 -51 124 -67 0 -15 -24 -15 -227 -9 -124 3 -231 10 -237 15 -18
14 -544 31 -966 31 -408 0 -937 -17 -955 -30 -5 -4 -73 -11 -150 -15 -77 -4
-145 -11 -150 -16 -6 -4 -90 -11 -188 -15 -161 -6 -177 -5 -183 10 -4 11 2 26
15 40 11 12 21 28 21 34 0 12 20 17 49 12 12 -1 13 1 2 13 -10 13 -9 19 8 36
12 12 26 21 31 21 9 0 15 22 11 43 -1 4 16 15 36 23 21 8 47 19 58 24 11 5 36
12 55 16 19 3 40 10 45 14 6 4 43 13 83 20 39 6 72 16 72 21 0 6 17 -4 38 -20
20 -17 52 -33 70 -37z m2072 -254 c4 -6 95 -13 205 -18 191 -7 199 -8 199 -27
-1 -11 -4 -27 -7 -35 -4 -8 -8 -76 -9 -150 l-3 -135 -47 -3 c-27 -2 -48 -7
-48 -12 0 -4 -16 -4 -35 1 -19 6 -40 7 -45 4 -7 -5 -30 4 -60 23 -2 2 2 8 10
13 13 9 13 10 0 8 -33 -3 -60 2 -60 11 0 6 6 10 14 10 8 0 18 5 22 11 5 9 -1
10 -22 4 -16 -4 -36 -8 -44 -8 -8 0 -18 -5 -22 -11 -5 -8 -8 -7 -8 2 0 6 -10
12 -21 12 -18 0 -19 2 -9 15 17 20 30 19 30 -2 0 -15 2 -14 15 3 22 29 18 34
-25 29 -44 -6 -48 -1 -23 27 19 22 10 36 -12 18 -12 -10 -15 -10 -15 1 0 9 -3
10 -8 4 -13 -18 -51 -35 -67 -29 -17 7 -20 20 -5 29 6 3 10 13 10 21 0 11 -16
14 -70 14 -38 0 -70 4 -70 9 0 6 30 8 70 5 64 -4 70 -2 70 15 0 14 -5 18 -20
14 -15 -4 -20 0 -21 13 -1 17 -2 17 -6 2 -5 -21 -29 -24 -36 -5 -4 10 -7 10
-18 0 -21 -21 -39 -15 -39 13 0 23 3 25 32 22 19 -2 33 2 35 10 6 17 -55 16
-73 -2 -8 -8 -14 -26 -14 -40 0 -14 -4 -28 -10 -31 -6 -4 -10 6 -10 24 0 16
-2 35 -3 43 -2 7 -2 10 0 6 8 -14 23 -9 23 7 0 12 13 15 60 15 33 0 60 4 60
10 0 14 -123 13 -138 -2 -9 -9 -12 -8 -12 4 0 12 11 18 38 21 20 2 3 4 -38 5
-42 1 -80 6 -86 12 -5 5 -54 11 -109 13 -55 2 28 2 185 0 170 -2 287 -8 290
-13z m-2310 -195 c0 -123 3 -175 11 -175 8 0 7 -5 -1 -15 -11 -13 -37 -15
-162 -11 -96 3 -154 8 -163 16 -12 10 -15 45 -15 181 0 154 6 190 25 159 3 -5
33 -10 65 -10 32 0 62 5 65 10 8 14 65 13 65 -1 0 -8 4 -8 13 -1 6 6 28 12 47
15 19 2 38 5 43 5 4 1 7 -77 7 -173z m1400 -5 c0 -18 -18 -19 -230 -22 -199
-3 -205 -4 -202 -23 2 -14 0 -16 -6 -8 -8 12 -44 19 -137 27 -27 2 -41 8 -43
20 -3 15 24 16 307 16 207 0 311 -3 311 -10z m1220 -237 c-8 -3 -18 -10 -21
-16 -11 -16 -118 -18 -1326 -20 -930 -2 -1185 -5 -1194 -14 -15 -15 -139 -18
-139 -3 0 6 15 10 34 10 19 0 37 4 40 9 12 19 278 24 1363 25 628 1 1146 5
1149 9 4 4 30 7 58 6 28 0 44 -3 36 -6z"/>
<path d="M948 2383 c-21 -2 -38 -8 -38 -12 0 -5 -17 -12 -37 -16 -27 -4 -54
-22 -90 -58 -29 -28 -53 -57 -53 -64 0 -7 -7 -13 -15 -13 -8 0 -15 -4 -15 -10
0 -5 -88 -98 -196 -206 l-196 -196 7 -183 c8 -214 13 -225 104 -247 74 -18 80
-39 9 -33 -29 3 -46 3 -38 -1 8 -3 26 -11 39 -17 35 -17 4168 -17 4202 0 13 7
33 13 43 15 11 2 21 9 24 16 3 9 -16 12 -70 13 l-73 1 50 9 c28 5 64 17 81 26
31 16 31 16 38 121 3 58 6 136 6 173 0 37 5 71 10 74 6 3 10 11 10 16 0 6 -68
79 -150 163 -83 84 -150 158 -150 164 0 7 -7 12 -15 12 -8 0 -15 5 -15 11 0 6
-47 58 -105 115 -75 75 -111 104 -129 104 -13 0 -26 6 -28 13 -4 9 -331 12
-1589 13 -871 0 -1601 -1 -1621 -3z m3164 -34 c15 -2 35 -12 44 -21 18 -18 13
-48 -8 -48 -9 0 -9 3 2 10 13 9 13 11 0 20 -8 5 -19 10 -25 10 -5 0 -4 -4 3
-8 7 -5 10 -16 6 -26 -5 -13 -2 -17 12 -16 38 4 54 0 54 -15 0 -8 9 -15 20
-15 11 0 20 -7 20 -15 0 -9 8 -19 18 -22 9 -4 20 -11 24 -17 4 -6 10 -7 14 -3
4 4 -1 14 -12 22 -16 12 -17 14 -3 15 18 0 33 -26 23 -41 -3 -6 -20 -9 -37 -7
-23 2 -32 -1 -32 -12 0 -8 8 -14 17 -14 10 1 18 -2 18 -7 0 -5 14 -6 30 -2 23
4 30 2 30 -10 0 -9 9 -19 20 -22 11 -3 20 -13 20 -20 0 -9 6 -12 17 -8 15 6
16 5 3 -9 -8 -8 -22 -13 -32 -10 -22 5 -23 -7 -4 -34 12 -15 17 -17 27 -6 18
17 27 15 31 -9 3 -18 22 -33 78 -59 9 -4 34 -11 55 -14 30 -5 56 -22 103 -66
35 -33 58 -61 52 -65 -5 -3 -10 -2 -10 4 0 5 -26 15 -57 22 -32 7 -63 16 -69
21 -6 4 -32 11 -58 14 -26 4 -49 11 -52 15 -3 5 -71 9 -151 9 -81 0 -144 3
-141 6 3 3 61 5 129 5 116 0 149 7 149 30 0 5 -7 9 -15 9 -8 0 -15 5 -15 10 0
13 -3656 14 -3664 1 -3 -4 -61 -11 -128 -14 -68 -3 -132 -9 -142 -13 -17 -7
-17 -5 3 15 12 12 35 24 52 28 18 3 28 11 25 18 -6 15 61 80 92 90 12 3 21 12
20 20 -2 7 14 31 35 53 20 23 37 46 37 52 0 6 11 8 28 5 15 -3 21 -2 15 1 -20
9 -15 32 7 39 11 4 28 19 38 33 24 39 34 43 56 24 17 -15 19 -15 14 -1 -11 29
7 39 92 48 78 8 3061 8 3122 0z m48 -499 c0 -6 61 -10 163 -10 89 0 182 -5
207 -10 47 -11 110 -39 121 -54 4 -5 19 -9 34 -8 19 0 23 -3 14 -9 -8 -5 -681
-9 -1496 -9 -977 0 -1484 -3 -1488 -10 -4 -6 -215 -10 -601 -10 -389 0 -594 3
-594 10 0 6 -30 10 -70 10 -80 0 -94 -16 -22 -25 26 -3 55 -10 64 -16 10 -5
82 -10 160 -11 96 -1 124 -3 85 -7 -58 -6 -58 -6 -28 -19 18 -8 28 -19 25 -26
-3 -8 2 -16 10 -19 20 -8 21 -37 2 -37 -8 0 -16 6 -19 14 -7 17 -73 26 -107
14 -25 -8 -63 -61 -52 -72 3 -3 19 -6 36 -6 23 0 27 3 18 12 -20 20 -13 29 20
26 23 -2 34 -9 36 -22 5 -26 -9 -36 -53 -40 -44 -4 -57 -21 -25 -31 26 -8 130
4 130 16 0 5 9 9 20 9 11 0 20 -4 20 -10 0 -5 -8 -10 -17 -10 -15 0 -16 -2 -3
-10 15 -10 8 -14 -22 -11 -30 3 -29 -17 1 -24 29 -6 51 -37 32 -43 -27 -9 -7
-22 37 -24 l47 -1 -42 -4 c-24 -2 -43 -9 -43 -16 -1 -7 -9 -2 -20 11 -11 13
-24 21 -30 17 -6 -4 -17 -2 -25 5 -9 7 -15 8 -20 0 -7 -12 -122 -14 -129 -1
-3 4 -37 11 -76 15 -38 4 -72 10 -74 14 -3 5 -8 75 -12 157 -4 88 -11 153 -18
157 -16 11 42 55 83 63 20 4 38 11 41 15 15 24 168 30 777 30 417 0 644 4 648
10 9 14 2255 14 2255 0z"/>
</g>
</svg>
